<svg xmlns="http://www.w3.org/2000/svg" viewBox="0 0 430.12 372.77"><defs><style>.a{fill:#fff;}</style></defs><title>vimeo</title><path class="a" d="M367.24,28.75Q277.55,25.83,245.8,129.42a83.2,83.2,0,0,1,31.85-6.76q32.72,0,28.88,36.77-1.9,22.29-28.88,64.86T237.19,266.9q-17.43,0-31.86-65.82Q200.47,181.7,188,102.32q-11.67-73.57-61.73-68.75-21.19,1.95-63.55,38.74Q31.8,100.39,0,128.47l20.23,26.11C39.53,141,50.82,134.27,54,134.27q22.2,0,41.48,69.65,17.3,64,34.75,127.81c17.25,46.47,38.53,69.71,63.55,69.71q60.7,0,148.47-114.22Q427,177.86,429.9,114.88,433.8,30.7,367.24,28.75Z" transform="translate(0 -28.67)"/></svg>